<svg width="100" height="100" viewBox="0 0 100 100" fill="none" xmlns="http://www.w3.org/2000/svg">
<path d="M32.9001 80.5205H26.0491V96.3331C26.0491 97.4377 26.9445 98.3331 28.0491 98.3331H30.9001C32.0046 98.3331 32.9001 97.4377 32.9001 96.3331V80.5205Z" fill="#D0D5D6"/>
<path d="M71.2658 80.5205H64.4148V96.3331C64.4148 97.4377 65.3102 98.3331 66.4148 98.3331H69.2658C70.3704 98.3331 71.2658 97.4377 71.2658 96.3331V80.5205Z" fill="#D0D5D6"/>
<path d="M75.3102 86.3497H22.0835C20.7543 86.3497 19.6768 85.2722 19.6768 83.9429V75.2363H77.7172V83.9429C77.7172 85.2722 76.6395 86.3497 75.3102 86.3497Z" fill="#D0D5D6"/>
<path d="M76.5746 80.115H21.9388V25.428C21.9388 20.2881 26.1056 16.1211 31.2458 16.1211H67.2677C72.4077 16.1211 76.5746 20.2879 76.5746 25.428V80.115Z" fill="#FF5E67"/>
<path d="M68.9969 80.0058H28.3138V70.97C28.3138 67.9674 30.748 65.5332 33.7506 65.5332H63.5599C66.5625 65.5332 68.9967 67.9674 68.9967 70.97L68.9969 80.0058Z" fill="#EF4A50"/>
<path d="M28.3552 80.1152H18.8311C16.7638 80.1152 15.0879 78.4392 15.0879 76.3719V61.7705C15.0879 59.0091 17.3265 56.7705 20.0879 56.7705H23.3552C26.1166 56.7705 28.3552 59.0091 28.3552 61.7705V80.1152Z" fill="#EF4A50"/>
<path d="M78.5622 80.1152H69.0381V61.7705C69.0381 59.0091 71.2767 56.7705 74.0381 56.7705H77.3054C80.0668 56.7705 82.3054 59.0091 82.3054 61.7705V76.3719C82.3052 78.4394 80.6295 80.1152 78.5622 80.1152Z" fill="#EF4A50"/>
<ellipse rx="2.0553" ry="2.0553" transform="matrix(1 0 0 -1 37.6959 30.5931)" fill="#CC3339"/>
<circle r="2.0553" transform="matrix(1 0 0 -1 60.9897 30.5931)" fill="#CC3339"/>
<ellipse rx="2.0553" ry="2.0553" transform="matrix(1 0 0 -1 37.6959 42.9252)" fill="#CC3339"/>
<circle r="2.0553" transform="matrix(1 0 0 -1 60.9897 42.9252)" fill="#CC3339"/>
<ellipse rx="2.0553" ry="2.0553" transform="matrix(1 0 0 -1 37.6959 55.2562)" fill="#CC3339"/>
<circle r="2.0553" transform="matrix(1 0 0 -1 60.9897 55.2562)" fill="#CC3339"/>
<path d="M84.9533 3.64325C85.122 3.22699 85.7114 3.22699 85.8801 3.64325L87.919 8.67406C87.9737 8.80897 88.0844 8.91336 88.2223 8.95995L93.598 10.7762C94.0513 10.9293 94.0513 11.5704 93.598 11.7235L88.2223 13.5398C88.0844 13.5864 87.9737 13.6907 87.919 13.8257L85.8801 18.8565C85.7114 19.2727 85.122 19.2727 84.9533 18.8565L82.9145 13.8257C82.8598 13.6907 82.7491 13.5864 82.6111 13.5398L77.2355 11.7235C76.7822 11.5704 76.7822 10.9293 77.2355 10.7762L82.6111 8.95995C82.7491 8.91336 82.8598 8.80897 82.9145 8.67406L84.9533 3.64325Z" fill="#FFE000"/>
<path d="M9.84522 39.5552C9.90099 39.4152 10.0991 39.4152 10.1549 39.5552L11.5473 43.0492C11.5652 43.0944 11.602 43.1294 11.6479 43.1452L15.3746 44.4257C15.5247 44.4772 15.5247 44.6894 15.3746 44.7409L11.6479 46.0214C11.602 46.0372 11.5652 46.0722 11.5473 46.1174L10.1549 49.6114C10.0991 49.7514 9.90099 49.7514 9.84522 49.6114L8.45284 46.1174C8.43486 46.0722 8.3981 46.0372 8.35217 46.0214L4.62545 44.7409C4.47544 44.6894 4.47544 44.4772 4.62545 44.4257L8.35217 43.1452C8.3981 43.1294 8.43486 43.0944 8.45284 43.0492L9.84522 39.5552Z" fill="#FFE000"/>
</svg>
