<svg width="16" height="17" viewBox="0 0 16 17" fill="none" xmlns="http://www.w3.org/2000/svg">
<circle cx="8" cy="8.02051" r="8" fill="#E9EBEC"/>
<path fillRule="evenodd" clipRule="evenodd" d="M8.03666 3.55078C7.30773 3.55078 6.70844 3.75907 6.24916 4.18369C5.78923 4.60891 5.56104 5.16476 5.56104 5.84122V6.1869C5.56104 6.24428 5.57545 6.30665 5.62273 6.35393C5.66908 6.40028 5.72994 6.41504 5.78638 6.4156L6.41629 6.45266H6.41938C6.47676 6.45266 6.53913 6.43824 6.58641 6.39096C6.63369 6.34368 6.6481 6.28132 6.6481 6.22394V5.84122C6.6481 5.45469 6.77063 5.15012 7.01056 4.91739C7.25892 4.68438 7.58916 4.56377 8.01197 4.56377C8.42638 4.56377 8.74801 4.68425 8.9881 4.91684L8.98936 4.91802C9.22845 5.14217 9.35115 5.44198 9.35115 5.82888C9.35115 6.07035 9.30441 6.27522 9.21488 6.44682L9.2133 6.45013C9.12784 6.62881 9.01975 6.78308 8.88926 6.91382C8.75251 7.04244 8.56618 7.20048 8.32938 7.38829C7.97231 7.67063 7.70165 7.92765 7.52147 8.15931C7.33091 8.40432 7.24004 8.71694 7.24004 9.08813V9.81652C7.24004 9.8739 7.25446 9.93626 7.30174 9.98354C7.34902 10.0308 7.41138 10.0452 7.46876 10.0452H8.11073C8.16811 10.0452 8.23048 10.0308 8.27776 9.98354C8.32504 9.93626 8.33945 9.8739 8.33945 9.81652V9.13751C8.33945 8.93023 8.40166 8.75734 8.52427 8.61309C8.65727 8.45662 8.86054 8.27255 9.13764 8.06064L9.13884 8.0597C9.4123 7.84425 9.63387 7.65213 9.80245 7.48355C9.97796 7.30803 10.1245 7.0827 10.2437 6.81059C10.3747 6.53051 10.4382 6.20222 10.4382 5.82888C10.4382 5.14595 10.2194 4.58984 9.77547 4.17198C9.33242 3.755 8.74916 3.55078 8.03666 3.55078ZM7.7774 10.8964C7.55442 10.8964 7.36286 10.9717 7.21034 11.1236C7.05522 11.2697 6.98078 11.4633 6.98078 11.6931C6.98078 11.9166 7.05643 12.1086 7.20914 12.2613C7.36186 12.414 7.55383 12.4897 7.7774 12.4897C8.00097 12.4897 8.19294 12.414 8.34566 12.2613C8.49838 12.1086 8.57402 11.9166 8.57402 11.6931C8.57402 11.4639 8.49998 11.2707 8.3457 11.1248C8.19975 10.9705 8.00657 10.8964 7.7774 10.8964Z" fill="#3B4346"/>
</svg>
