<svg width="26" height="27" viewBox="0 0 26 27" fill="none" xmlns="http://www.w3.org/2000/svg">
<circle cx="13" cy="13.7974" r="13" fill="#3B4346"/>
<path fillRule="evenodd" clipRule="evenodd" d="M9.53432 12.7435L13.0854 9.19401L16.6378 12.7464L18.7029 10.6799L13.0854 5.06113L7.46781 10.6785L9.53432 12.7435ZM3.94238 14.203L6.00813 12.1373L8.07388 14.203L6.00813 16.2687L3.94238 14.203ZM13.0858 19.2128L9.53479 15.6619L7.4654 17.7254L7.46828 17.7283L13.0858 23.3443L18.7034 17.7254L18.7048 17.724L16.6383 15.6605L13.0858 19.2128ZM18.0939 14.2035L20.1597 12.1378L22.2254 14.2035L20.1597 16.2692L18.0939 14.2035ZM13.0857 12.1052L15.1811 14.202H15.1825L15.1811 14.2034L13.0857 16.3002L10.9903 14.2063L10.9874 14.202L10.9903 14.1991L11.3571 13.8323L11.5362 13.6547L13.0857 12.1052Z" fill="#F0B90B"/>
</svg>
