<svg width="20" height="20" viewBox="0 0 20 20" fill="none" xmlns="http://www.w3.org/2000/svg">
<path d="M0.30207 9.42356C2.34812 8.29653 4.63207 7.35591 6.76608 6.41048C10.4374 4.86193 14.1233 3.34022 17.8464 1.92352C18.5708 1.68213 19.8724 1.44606 20 2.51956C19.9301 4.03908 19.6427 5.54971 19.4455 7.06034C18.945 10.3823 18.3665 13.693 17.8024 17.004C17.608 18.1069 16.2264 18.6779 15.3424 17.9721C13.2179 16.537 11.077 15.1159 8.97959 13.6476C8.29254 12.9495 8.92963 11.9469 9.54325 11.4484C11.2931 9.72395 13.1488 8.25883 14.8072 6.44526C15.2545 5.36498 13.9328 6.27541 13.4968 6.55436C11.1013 8.20516 8.76438 9.95674 6.23874 11.4076C4.94865 12.1177 3.44502 11.5108 2.15552 11.1145C0.999303 10.6358 -0.69497 10.1536 0.301953 9.42363L0.30207 9.42356Z" fill="#A6A8AA"/>
</svg>
