<svg width="21" height="21" viewBox="0 0 21 21" fill="none" xmlns="http://www.w3.org/2000/svg">
<path d="M12.6147 3.38153C12.1268 2.08286 11.5136 0.989105 10.809 0.150482C10.5775 0.133697 10.3446 0.125 10.1105 0.125C9.87629 0.125 9.64338 0.133697 9.41211 0.150482C8.70729 0.989105 8.09409 2.0827 7.60641 3.38153C7.4489 3.80084 7.30732 4.23557 7.18164 4.68295H13.0394C12.9136 4.23557 12.772 3.80084 12.6147 3.38153V3.38153Z" fill="#A6A8AA"/>
<path d="M7.60626 16.8688C8.09409 18.1675 8.70729 19.2612 9.41196 20.0999C9.64338 20.1166 9.87629 20.1253 10.1105 20.1253C10.3446 20.1253 10.5775 20.1166 10.809 20.0999C11.5136 19.2612 12.1268 18.1676 12.6145 16.8688C12.772 16.4495 12.9136 16.0148 13.0393 15.5674H7.18164C7.30732 16.0148 7.4489 16.4495 7.60626 16.8688V16.8688Z" fill="#A6A8AA"/>
<path d="M14.2232 15.5674C13.798 17.1941 13.1847 18.6524 12.4199 19.8441C14.1409 19.4172 15.7196 18.5134 17.0033 17.1964C17.4924 16.6945 17.9226 16.1484 18.2914 15.5674H14.2232Z" fill="#A6A8AA"/>
<path d="M5.99784 4.68298C6.4232 3.05624 7.03641 1.59796 7.80117 0.40625C6.08039 0.833191 4.50149 1.73697 3.21767 3.05396C2.72865 3.55582 2.29853 4.10193 1.92969 4.68298H5.99784Z" fill="#A6A8AA"/>
<path d="M5.99784 15.5674H1.92969C2.29853 16.1484 2.72865 16.6945 3.21767 17.1964C4.50149 18.5134 6.08024 19.4172 7.80102 19.8441C7.03641 18.6524 6.4232 17.1941 5.99784 15.5674Z" fill="#A6A8AA"/>
<path d="M14.2232 4.68298H18.2914C17.9226 4.10193 17.4926 3.55582 17.0034 3.05396C15.7196 1.73697 14.1409 0.833191 12.4199 0.40625C13.1847 1.59796 13.798 3.05624 14.2232 4.68298V4.68298Z" fill="#A6A8AA"/>
<path fillRule="evenodd" clipRule="evenodd" d="M1.30783 5.83984H18.9533C20.793 8.35363 20.2113 12.929 18.9533 14.4637H1.30783C0.329103 13.5656 -0.773928 8.7486 1.30783 5.83984ZM2.39016 12.2565L1.42578 8.1123H2.26066L2.8696 10.959L3.60804 8.1123H4.57794L5.28607 11.007L5.90603 8.1123H6.72713L5.74622 12.2565H4.88103L4.07646 9.15825L3.27464 12.2565H2.39016ZM8.43727 12.2565L7.47289 8.1123H8.30777L8.91671 10.959L9.65515 8.1123H10.625L11.3332 11.007L11.9531 8.1123H12.7742L11.7933 12.2565H10.9281L10.1236 9.15825L9.32175 12.2565H8.43727ZM13.52 8.1123L14.4844 12.2565H15.3689L16.1707 9.15825L16.9752 12.2565H17.8404L18.8213 8.1123H18.0002L17.3803 11.007L16.6721 8.1123H15.7023L14.9638 10.959L14.3549 8.1123H13.52Z" fill="#A6A8AA"/>
</svg>
